<svg xmlns="http://www.w3.org/2000/svg" width="760" height="440" viewBox="0 0 760 440" role="img" aria-label="Round-trip latency — µs, median with p95 whisker (lower is better)">
<rect width="760" height="440" fill="#1a1a19" rx="8"/>
<text x="24" y="34" font-family="system-ui, -apple-system, 'Segoe UI', sans-serif" font-size="17" font-weight="600" fill="#ffffff">Round-trip latency — µs, median with p95 whisker (lower is better)</text>
<rect x="24.00" y="52" width="12" height="12" rx="3" fill="#3987e5"/>
<text x="42.00" y="62" font-family="system-ui, -apple-system, 'Segoe UI', sans-serif" font-size="12.5" fill="#c3c2b7">xray-rust</text>
<rect x="138.00" y="52" width="12" height="12" rx="3" fill="#d95926"/>
<text x="156.00" y="62" font-family="system-ui, -apple-system, 'Segoe UI', sans-serif" font-size="12.5" fill="#c3c2b7">Xray-core</text>
<rect x="252.00" y="52" width="12" height="12" rx="3" fill="#199e70"/>
<text x="270.00" y="62" font-family="system-ui, -apple-system, 'Segoe UI', sans-serif" font-size="12.5" fill="#c3c2b7">sing-box</text>
<text x="54" y="334.00" font-family="system-ui, -apple-system, 'Segoe UI', sans-serif" font-size="11" fill="#898781" text-anchor="end">0.00</text>
<line x1="64" y1="270.50" x2="736" y2="270.50" stroke="#2c2c2a" stroke-width="1"/>
<text x="54" y="274.50" font-family="system-ui, -apple-system, 'Segoe UI', sans-serif" font-size="11" fill="#898781" text-anchor="end">100</text>
<line x1="64" y1="211.00" x2="736" y2="211.00" stroke="#2c2c2a" stroke-width="1"/>
<text x="54" y="215.00" font-family="system-ui, -apple-system, 'Segoe UI', sans-serif" font-size="11" fill="#898781" text-anchor="end">200</text>
<line x1="64" y1="151.50" x2="736" y2="151.50" stroke="#2c2c2a" stroke-width="1"/>
<text x="54" y="155.50" font-family="system-ui, -apple-system, 'Segoe UI', sans-serif" font-size="11" fill="#898781" text-anchor="end">300</text>
<line x1="64" y1="92.00" x2="736" y2="92.00" stroke="#2c2c2a" stroke-width="1"/>
<text x="54" y="96.00" font-family="system-ui, -apple-system, 'Segoe UI', sans-serif" font-size="11" fill="#898781" text-anchor="end">400</text>
<line x1="64" y1="330" x2="736" y2="330" stroke="#383835" stroke-width="1"/>
<path d="M 108.00 330.00 L 108.00 310.20 Q 108.00 306.20 112.00 306.20 L 148.00 306.20 Q 152.00 306.20 152.00 310.20 L 152.00 330.00 Z" fill="#3987e5"/>
<line x1="130.00" y1="306.80" x2="130.00" y2="263.95" stroke="#c3c2b7" stroke-width="1.5"/>
<line x1="125.00" y1="306.80" x2="135.00" y2="306.80" stroke="#c3c2b7" stroke-width="1.5"/>
<line x1="125.00" y1="263.95" x2="135.00" y2="263.95" stroke="#c3c2b7" stroke-width="1.5"/>
<text x="130.00" y="255.95" font-family="system-ui, -apple-system, 'Segoe UI', sans-serif" font-size="12" font-weight="600" fill="#ffffff" text-anchor="middle">40.0</text>
<path d="M 154.00 330.00 L 154.00 313.18 Q 154.00 309.18 158.00 309.18 L 194.00 309.18 Q 198.00 309.18 198.00 313.18 L 198.00 330.00 Z" fill="#d95926"/>
<line x1="176.00" y1="309.18" x2="176.00" y2="238.37" stroke="#c3c2b7" stroke-width="1.5"/>
<line x1="171.00" y1="309.18" x2="181.00" y2="309.18" stroke="#c3c2b7" stroke-width="1.5"/>
<line x1="171.00" y1="238.37" x2="181.00" y2="238.37" stroke="#c3c2b7" stroke-width="1.5"/>
<text x="176.00" y="230.37" font-family="system-ui, -apple-system, 'Segoe UI', sans-serif" font-size="12" font-weight="600" fill="#ffffff" text-anchor="middle">35.0</text>
<path d="M 200.00 330.00 L 200.00 311.99 Q 200.00 307.99 204.00 307.99 L 240.00 307.99 Q 244.00 307.99 244.00 311.99 L 244.00 330.00 Z" fill="#199e70"/>
<line x1="222.00" y1="308.58" x2="222.00" y2="241.94" stroke="#c3c2b7" stroke-width="1.5"/>
<line x1="217.00" y1="308.58" x2="227.00" y2="308.58" stroke="#c3c2b7" stroke-width="1.5"/>
<line x1="217.00" y1="241.94" x2="227.00" y2="241.94" stroke="#c3c2b7" stroke-width="1.5"/>
<text x="222.00" y="233.94" font-family="system-ui, -apple-system, 'Segoe UI', sans-serif" font-size="12" font-weight="600" fill="#ffffff" text-anchor="middle">37.0</text>
<text x="176.00" y="354" font-family="system-ui, -apple-system, 'Segoe UI', sans-serif" font-size="12.5" fill="#c3c2b7" text-anchor="middle">tcp-freedom</text>
<path d="M 332.00 330.00 L 332.00 311.99 Q 332.00 307.99 336.00 307.99 L 372.00 307.99 Q 376.00 307.99 376.00 311.99 L 376.00 330.00 Z" fill="#3987e5"/>
<line x1="354.00" y1="308.58" x2="354.00" y2="230.63" stroke="#c3c2b7" stroke-width="1.5"/>
<line x1="349.00" y1="308.58" x2="359.00" y2="308.58" stroke="#c3c2b7" stroke-width="1.5"/>
<line x1="349.00" y1="230.63" x2="359.00" y2="230.63" stroke="#c3c2b7" stroke-width="1.5"/>
<text x="354.00" y="222.63" font-family="system-ui, -apple-system, 'Segoe UI', sans-serif" font-size="12" font-weight="600" fill="#ffffff" text-anchor="middle">37.0</text>
<path d="M 378.00 330.00 L 378.00 299.49 Q 378.00 295.49 382.00 295.49 L 418.00 295.49 Q 422.00 295.49 422.00 299.49 L 422.00 330.00 Z" fill="#d95926"/>
<line x1="400.00" y1="295.49" x2="400.00" y2="232.42" stroke="#c3c2b7" stroke-width="1.5"/>
<line x1="395.00" y1="295.49" x2="405.00" y2="295.49" stroke="#c3c2b7" stroke-width="1.5"/>
<line x1="395.00" y1="232.42" x2="405.00" y2="232.42" stroke="#c3c2b7" stroke-width="1.5"/>
<text x="400.00" y="224.42" font-family="system-ui, -apple-system, 'Segoe UI', sans-serif" font-size="12" font-weight="600" fill="#ffffff" text-anchor="middle">58.0</text>
<path d="M 424.00 330.00 L 424.00 306.63 Q 424.00 302.63 428.00 302.63 L 464.00 302.63 Q 468.00 302.63 468.00 306.63 L 468.00 330.00 Z" fill="#199e70"/>
<line x1="446.00" y1="302.63" x2="446.00" y2="233.61" stroke="#c3c2b7" stroke-width="1.5"/>
<line x1="441.00" y1="302.63" x2="451.00" y2="302.63" stroke="#c3c2b7" stroke-width="1.5"/>
<line x1="441.00" y1="233.61" x2="451.00" y2="233.61" stroke="#c3c2b7" stroke-width="1.5"/>
<text x="446.00" y="225.61" font-family="system-ui, -apple-system, 'Segoe UI', sans-serif" font-size="12" font-weight="600" fill="#ffffff" text-anchor="middle">46.0</text>
<text x="400.00" y="354" font-family="system-ui, -apple-system, 'Segoe UI', sans-serif" font-size="12.5" fill="#c3c2b7" text-anchor="middle">udp-freedom</text>
<path d="M 579.00 330.00 L 579.00 284.62 Q 579.00 280.62 583.00 280.62 L 619.00 280.62 Q 623.00 280.62 623.00 284.62 L 623.00 330.00 Z" fill="#3987e5"/>
<line x1="601.00" y1="281.21" x2="601.00" y2="187.20" stroke="#c3c2b7" stroke-width="1.5"/>
<line x1="596.00" y1="281.21" x2="606.00" y2="281.21" stroke="#c3c2b7" stroke-width="1.5"/>
<line x1="596.00" y1="187.20" x2="606.00" y2="187.20" stroke="#c3c2b7" stroke-width="1.5"/>
<text x="601.00" y="179.20" font-family="system-ui, -apple-system, 'Segoe UI', sans-serif" font-size="12" font-weight="600" fill="#ffffff" text-anchor="middle">83.0</text>
<path d="M 625.00 330.00 L 625.00 277.48 Q 625.00 273.48 629.00 273.48 L 665.00 273.48 Q 669.00 273.48 669.00 277.48 L 669.00 330.00 Z" fill="#d95926"/>
<line x1="647.00" y1="274.07" x2="647.00" y2="183.63" stroke="#c3c2b7" stroke-width="1.5"/>
<line x1="642.00" y1="274.07" x2="652.00" y2="274.07" stroke="#c3c2b7" stroke-width="1.5"/>
<line x1="642.00" y1="183.63" x2="652.00" y2="183.63" stroke="#c3c2b7" stroke-width="1.5"/>
<text x="647.00" y="175.63" font-family="system-ui, -apple-system, 'Segoe UI', sans-serif" font-size="12" font-weight="600" fill="#ffffff" text-anchor="middle">95.0</text>
<text x="624.00" y="354" font-family="system-ui, -apple-system, 'Segoe UI', sans-serif" font-size="12.5" fill="#c3c2b7" text-anchor="middle">reality-vision-xudp</text>
<text x="24" y="386" font-family="system-ui, -apple-system, 'Segoe UI', sans-serif" font-size="11" fill="#898781">sing-box v1.13.20 omitted from REALITY comparison with Xray-core v26.7.28 at the recorded compatibility boundary</text>
<text x="24" y="404" font-family="system-ui, -apple-system, 'Segoe UI', sans-serif" font-size="11" fill="#898781">2026-08-29 · MacBook Pro (M3 Pro, 12 cores, 18 GB), macOS 26.5.2 · runs=5 · synthetic localhost benchmark</text>
<text x="24" y="422" font-family="system-ui, -apple-system, 'Segoe UI', sans-serif" font-size="11" fill="#898781">xray-rust v0.4.1-rc.4 (5b8dca3) · Xray-core v26.7.28 · sing-box v1.13.20</text>
</svg>
