<svg xmlns="http://www.w3.org/2000/svg" width="760" height="440" viewBox="0 0 760 440" role="img" aria-label="CPU cost — milliseconds per GiB transferred (lower is better)">
<rect width="760" height="440" fill="#1a1a19" rx="8"/>
<text x="24" y="34" font-family="system-ui, -apple-system, 'Segoe UI', sans-serif" font-size="17" font-weight="600" fill="#ffffff">CPU cost — milliseconds per GiB transferred (lower is better)</text>
<rect x="24.00" y="52" width="12" height="12" rx="3" fill="#3987e5"/>
<text x="42.00" y="62" font-family="system-ui, -apple-system, 'Segoe UI', sans-serif" font-size="12.5" fill="#c3c2b7">xray-rust</text>
<rect x="138.00" y="52" width="12" height="12" rx="3" fill="#d95926"/>
<text x="156.00" y="62" font-family="system-ui, -apple-system, 'Segoe UI', sans-serif" font-size="12.5" fill="#c3c2b7">Xray-core</text>
<rect x="252.00" y="52" width="12" height="12" rx="3" fill="#199e70"/>
<text x="270.00" y="62" font-family="system-ui, -apple-system, 'Segoe UI', sans-serif" font-size="12.5" fill="#c3c2b7">sing-box</text>
<text x="54" y="334.00" font-family="system-ui, -apple-system, 'Segoe UI', sans-serif" font-size="11" fill="#898781" text-anchor="end">0.00</text>
<line x1="64" y1="270.50" x2="736" y2="270.50" stroke="#2c2c2a" stroke-width="1"/>
<text x="54" y="274.50" font-family="system-ui, -apple-system, 'Segoe UI', sans-serif" font-size="11" fill="#898781" text-anchor="end">100</text>
<line x1="64" y1="211.00" x2="736" y2="211.00" stroke="#2c2c2a" stroke-width="1"/>
<text x="54" y="215.00" font-family="system-ui, -apple-system, 'Segoe UI', sans-serif" font-size="11" fill="#898781" text-anchor="end">200</text>
<line x1="64" y1="151.50" x2="736" y2="151.50" stroke="#2c2c2a" stroke-width="1"/>
<text x="54" y="155.50" font-family="system-ui, -apple-system, 'Segoe UI', sans-serif" font-size="11" fill="#898781" text-anchor="end">300</text>
<line x1="64" y1="92.00" x2="736" y2="92.00" stroke="#2c2c2a" stroke-width="1"/>
<text x="54" y="96.00" font-family="system-ui, -apple-system, 'Segoe UI', sans-serif" font-size="11" fill="#898781" text-anchor="end">400</text>
<line x1="64" y1="330" x2="736" y2="330" stroke="#383835" stroke-width="1"/>
<path d="M 332.00 330.00 L 332.00 217.98 Q 332.00 213.98 336.00 213.98 L 372.00 213.98 Q 376.00 213.98 376.00 217.98 L 376.00 330.00 Z" fill="#3987e5"/>
<line x1="354.00" y1="221.71" x2="354.00" y2="212.19" stroke="#c3c2b7" stroke-width="1.5"/>
<line x1="349.00" y1="221.71" x2="359.00" y2="221.71" stroke="#c3c2b7" stroke-width="1.5"/>
<line x1="349.00" y1="212.19" x2="359.00" y2="212.19" stroke="#c3c2b7" stroke-width="1.5"/>
<text x="354.00" y="204.19" font-family="system-ui, -apple-system, 'Segoe UI', sans-serif" font-size="12" font-weight="600" fill="#ffffff" text-anchor="middle">195</text>
<path d="M 378.00 330.00 L 378.00 192.98 Q 378.00 188.98 382.00 188.98 L 418.00 188.98 Q 422.00 188.98 422.00 192.98 L 422.00 330.00 Z" fill="#d95926"/>
<line x1="400.00" y1="190.77" x2="400.00" y2="174.11" stroke="#c3c2b7" stroke-width="1.5"/>
<line x1="395.00" y1="190.77" x2="405.00" y2="190.77" stroke="#c3c2b7" stroke-width="1.5"/>
<line x1="395.00" y1="174.11" x2="405.00" y2="174.11" stroke="#c3c2b7" stroke-width="1.5"/>
<text x="400.00" y="166.11" font-family="system-ui, -apple-system, 'Segoe UI', sans-serif" font-size="12" font-weight="600" fill="#ffffff" text-anchor="middle">237</text>
<path d="M 424.00 330.00 L 424.00 233.44 Q 424.00 229.44 428.00 229.44 L 464.00 229.44 Q 468.00 229.44 468.00 233.44 L 468.00 330.00 Z" fill="#199e70"/>
<line x1="446.00" y1="241.94" x2="446.00" y2="221.12" stroke="#c3c2b7" stroke-width="1.5"/>
<line x1="441.00" y1="241.94" x2="451.00" y2="241.94" stroke="#c3c2b7" stroke-width="1.5"/>
<line x1="441.00" y1="221.12" x2="451.00" y2="221.12" stroke="#c3c2b7" stroke-width="1.5"/>
<text x="446.00" y="213.12" font-family="system-ui, -apple-system, 'Segoe UI', sans-serif" font-size="12" font-weight="600" fill="#ffffff" text-anchor="middle">169</text>
<text x="400.00" y="354" font-family="system-ui, -apple-system, 'Segoe UI', sans-serif" font-size="12.5" fill="#c3c2b7" text-anchor="middle">tcp-bulk-throughput</text>
<text x="24" y="404" font-family="system-ui, -apple-system, 'Segoe UI', sans-serif" font-size="11" fill="#898781">2026-07-31 · Apple M3 Pro, 18 GB RAM, macOS 26.5.2 · runs=5 · synthetic localhost benchmark</text>
<text x="24" y="422" font-family="system-ui, -apple-system, 'Segoe UI', sans-serif" font-size="11" fill="#898781">xray-rust 05c33ac · Xray-core v26.5.9 · sing-box v1.13.15</text>
</svg>
