<svg xmlns="http://www.w3.org/2000/svg" width="760" height="440" viewBox="0 0 760 440" role="img" aria-label="Round-trip latency — µs, median with p95 whisker (lower is better)">
<rect width="760" height="440" fill="#1a1a19" rx="8"/>
<text x="24" y="34" font-family="system-ui, -apple-system, 'Segoe UI', sans-serif" font-size="17" font-weight="600" fill="#ffffff">Round-trip latency — µs, median with p95 whisker (lower is better)</text>
<rect x="24.00" y="52" width="12" height="12" rx="3" fill="#3987e5"/>
<text x="42.00" y="62" font-family="system-ui, -apple-system, 'Segoe UI', sans-serif" font-size="12.5" fill="#c3c2b7">xray-rust</text>
<rect x="138.00" y="52" width="12" height="12" rx="3" fill="#d95926"/>
<text x="156.00" y="62" font-family="system-ui, -apple-system, 'Segoe UI', sans-serif" font-size="12.5" fill="#c3c2b7">Xray-core</text>
<rect x="252.00" y="52" width="12" height="12" rx="3" fill="#199e70"/>
<text x="270.00" y="62" font-family="system-ui, -apple-system, 'Segoe UI', sans-serif" font-size="12.5" fill="#c3c2b7">sing-box</text>
<text x="54" y="334.00" font-family="system-ui, -apple-system, 'Segoe UI', sans-serif" font-size="11" fill="#898781" text-anchor="end">0.00</text>
<line x1="64" y1="270.50" x2="736" y2="270.50" stroke="#2c2c2a" stroke-width="1"/>
<text x="54" y="274.50" font-family="system-ui, -apple-system, 'Segoe UI', sans-serif" font-size="11" fill="#898781" text-anchor="end">150</text>
<line x1="64" y1="211.00" x2="736" y2="211.00" stroke="#2c2c2a" stroke-width="1"/>
<text x="54" y="215.00" font-family="system-ui, -apple-system, 'Segoe UI', sans-serif" font-size="11" fill="#898781" text-anchor="end">300</text>
<line x1="64" y1="151.50" x2="736" y2="151.50" stroke="#2c2c2a" stroke-width="1"/>
<text x="54" y="155.50" font-family="system-ui, -apple-system, 'Segoe UI', sans-serif" font-size="11" fill="#898781" text-anchor="end">450</text>
<line x1="64" y1="92.00" x2="736" y2="92.00" stroke="#2c2c2a" stroke-width="1"/>
<text x="54" y="96.00" font-family="system-ui, -apple-system, 'Segoe UI', sans-serif" font-size="11" fill="#898781" text-anchor="end">600</text>
<line x1="64" y1="330" x2="736" y2="330" stroke="#383835" stroke-width="1"/>
<path d="M 164.00 330.00 L 164.00 318.93 Q 164.00 314.93 168.00 314.93 L 204.00 314.93 Q 208.00 314.93 208.00 318.93 L 208.00 330.00 Z" fill="#3987e5"/>
<line x1="186.00" y1="319.69" x2="186.00" y2="310.56" stroke="#c3c2b7" stroke-width="1.5"/>
<line x1="181.00" y1="319.69" x2="191.00" y2="319.69" stroke="#c3c2b7" stroke-width="1.5"/>
<line x1="181.00" y1="310.56" x2="191.00" y2="310.56" stroke="#c3c2b7" stroke-width="1.5"/>
<text x="186.00" y="302.56" font-family="system-ui, -apple-system, 'Segoe UI', sans-serif" font-size="12" font-weight="600" fill="#ffffff" text-anchor="middle">38.0</text>
<path d="M 210.00 330.00 L 210.00 319.72 Q 210.00 315.72 214.00 315.72 L 250.00 315.72 Q 254.00 315.72 254.00 319.72 L 254.00 330.00 Z" fill="#d95926"/>
<line x1="232.00" y1="316.12" x2="232.00" y2="312.15" stroke="#c3c2b7" stroke-width="1.5"/>
<line x1="227.00" y1="316.12" x2="237.00" y2="316.12" stroke="#c3c2b7" stroke-width="1.5"/>
<line x1="227.00" y1="312.15" x2="237.00" y2="312.15" stroke="#c3c2b7" stroke-width="1.5"/>
<text x="232.00" y="304.15" font-family="system-ui, -apple-system, 'Segoe UI', sans-serif" font-size="12" font-weight="600" fill="#ffffff" text-anchor="middle">36.0</text>
<path d="M 256.00 330.00 L 256.00 319.32 Q 256.00 315.32 260.00 315.32 L 296.00 315.32 Q 300.00 315.32 300.00 319.32 L 300.00 330.00 Z" fill="#199e70"/>
<line x1="278.00" y1="316.51" x2="278.00" y2="311.75" stroke="#c3c2b7" stroke-width="1.5"/>
<line x1="273.00" y1="316.51" x2="283.00" y2="316.51" stroke="#c3c2b7" stroke-width="1.5"/>
<line x1="273.00" y1="311.75" x2="283.00" y2="311.75" stroke="#c3c2b7" stroke-width="1.5"/>
<text x="278.00" y="303.75" font-family="system-ui, -apple-system, 'Segoe UI', sans-serif" font-size="12" font-weight="600" fill="#ffffff" text-anchor="middle">37.0</text>
<text x="232.00" y="354" font-family="system-ui, -apple-system, 'Segoe UI', sans-serif" font-size="12.5" fill="#c3c2b7" text-anchor="middle">tcp-freedom</text>
<path d="M 500.00 330.00 L 500.00 303.06 Q 500.00 299.06 504.00 299.06 L 540.00 299.06 Q 544.00 299.06 544.00 303.06 L 544.00 330.00 Z" fill="#3987e5"/>
<line x1="522.00" y1="304.22" x2="522.00" y2="253.05" stroke="#c3c2b7" stroke-width="1.5"/>
<line x1="517.00" y1="304.22" x2="527.00" y2="304.22" stroke="#c3c2b7" stroke-width="1.5"/>
<line x1="517.00" y1="253.05" x2="527.00" y2="253.05" stroke="#c3c2b7" stroke-width="1.5"/>
<text x="522.00" y="245.05" font-family="system-ui, -apple-system, 'Segoe UI', sans-serif" font-size="12" font-weight="600" fill="#ffffff" text-anchor="middle">78.0</text>
<path d="M 546.00 330.00 L 546.00 277.67 Q 546.00 273.67 550.00 273.67 L 586.00 273.67 Q 590.00 273.67 590.00 277.67 L 590.00 330.00 Z" fill="#d95926"/>
<line x1="568.00" y1="288.35" x2="568.00" y2="157.85" stroke="#c3c2b7" stroke-width="1.5"/>
<line x1="563.00" y1="288.35" x2="573.00" y2="288.35" stroke="#c3c2b7" stroke-width="1.5"/>
<line x1="563.00" y1="157.85" x2="573.00" y2="157.85" stroke="#c3c2b7" stroke-width="1.5"/>
<text x="568.00" y="149.85" font-family="system-ui, -apple-system, 'Segoe UI', sans-serif" font-size="12" font-weight="600" fill="#ffffff" text-anchor="middle">142</text>
<path d="M 592.00 330.00 L 592.00 298.70 Q 592.00 294.70 596.00 294.70 L 632.00 294.70 Q 636.00 294.70 636.00 298.70 L 636.00 330.00 Z" fill="#199e70"/>
<line x1="614.00" y1="304.22" x2="614.00" y2="224.88" stroke="#c3c2b7" stroke-width="1.5"/>
<line x1="609.00" y1="304.22" x2="619.00" y2="304.22" stroke="#c3c2b7" stroke-width="1.5"/>
<line x1="609.00" y1="224.88" x2="619.00" y2="224.88" stroke="#c3c2b7" stroke-width="1.5"/>
<text x="614.00" y="216.88" font-family="system-ui, -apple-system, 'Segoe UI', sans-serif" font-size="12" font-weight="600" fill="#ffffff" text-anchor="middle">89.0</text>
<text x="568.00" y="354" font-family="system-ui, -apple-system, 'Segoe UI', sans-serif" font-size="12.5" fill="#c3c2b7" text-anchor="middle">reality-vision-xudp</text>
<text x="24" y="404" font-family="system-ui, -apple-system, 'Segoe UI', sans-serif" font-size="11" fill="#898781">2026-07-30 · Apple M3 Pro, 18 GB RAM, macOS 26.5.2 · runs=5 · synthetic localhost benchmark</text>
<text x="24" y="422" font-family="system-ui, -apple-system, 'Segoe UI', sans-serif" font-size="11" fill="#898781">xray-rust 4510952 · Xray-core v26.5.9 · sing-box v1.13.15</text>
</svg>
