<svg xmlns="http://www.w3.org/2000/svg" width="760" height="440" viewBox="0 0 760 440" role="img" aria-label="Round-trip latency — µs, median with p95 whisker (lower is better)">
<rect width="760" height="440" fill="#fcfcfb" rx="8"/>
<text x="24" y="34" font-family="system-ui, -apple-system, 'Segoe UI', sans-serif" font-size="17" font-weight="600" fill="#0b0b0b">Round-trip latency — µs, median with p95 whisker (lower is better)</text>
<rect x="24.00" y="52" width="12" height="12" rx="3" fill="#2a78d6"/>
<text x="42.00" y="62" font-family="system-ui, -apple-system, 'Segoe UI', sans-serif" font-size="12.5" fill="#52514e">xray-rust</text>
<rect x="138.00" y="52" width="12" height="12" rx="3" fill="#eb6834"/>
<text x="156.00" y="62" font-family="system-ui, -apple-system, 'Segoe UI', sans-serif" font-size="12.5" fill="#52514e">Xray-core</text>
<rect x="252.00" y="52" width="12" height="12" rx="3" fill="#1baf7a"/>
<text x="270.00" y="62" font-family="system-ui, -apple-system, 'Segoe UI', sans-serif" font-size="12.5" fill="#52514e">sing-box</text>
<text x="54" y="334.00" font-family="system-ui, -apple-system, 'Segoe UI', sans-serif" font-size="11" fill="#898781" text-anchor="end">0.00</text>
<line x1="64" y1="270.50" x2="736" y2="270.50" stroke="#e1e0d9" stroke-width="1"/>
<text x="54" y="274.50" font-family="system-ui, -apple-system, 'Segoe UI', sans-serif" font-size="11" fill="#898781" text-anchor="end">100</text>
<line x1="64" y1="211.00" x2="736" y2="211.00" stroke="#e1e0d9" stroke-width="1"/>
<text x="54" y="215.00" font-family="system-ui, -apple-system, 'Segoe UI', sans-serif" font-size="11" fill="#898781" text-anchor="end">200</text>
<line x1="64" y1="151.50" x2="736" y2="151.50" stroke="#e1e0d9" stroke-width="1"/>
<text x="54" y="155.50" font-family="system-ui, -apple-system, 'Segoe UI', sans-serif" font-size="11" fill="#898781" text-anchor="end">300</text>
<line x1="64" y1="92.00" x2="736" y2="92.00" stroke="#e1e0d9" stroke-width="1"/>
<text x="54" y="96.00" font-family="system-ui, -apple-system, 'Segoe UI', sans-serif" font-size="11" fill="#898781" text-anchor="end">400</text>
<line x1="64" y1="330" x2="736" y2="330" stroke="#c3c2b7" stroke-width="1"/>
<path d="M 108.00 330.00 L 108.00 311.39 Q 108.00 307.39 112.00 307.39 L 148.00 307.39 Q 152.00 307.39 152.00 311.39 L 152.00 330.00 Z" fill="#2a78d6"/>
<line x1="130.00" y1="308.58" x2="130.00" y2="300.25" stroke="#52514e" stroke-width="1.5"/>
<line x1="125.00" y1="308.58" x2="135.00" y2="308.58" stroke="#52514e" stroke-width="1.5"/>
<line x1="125.00" y1="300.25" x2="135.00" y2="300.25" stroke="#52514e" stroke-width="1.5"/>
<text x="130.00" y="292.25" font-family="system-ui, -apple-system, 'Segoe UI', sans-serif" font-size="12" font-weight="600" fill="#0b0b0b" text-anchor="middle">38.0</text>
<path d="M 154.00 330.00 L 154.00 313.18 Q 154.00 309.18 158.00 309.18 L 194.00 309.18 Q 198.00 309.18 198.00 313.18 L 198.00 330.00 Z" fill="#eb6834"/>
<line x1="176.00" y1="309.18" x2="176.00" y2="302.04" stroke="#52514e" stroke-width="1.5"/>
<line x1="171.00" y1="309.18" x2="181.00" y2="309.18" stroke="#52514e" stroke-width="1.5"/>
<line x1="171.00" y1="302.04" x2="181.00" y2="302.04" stroke="#52514e" stroke-width="1.5"/>
<text x="176.00" y="294.04" font-family="system-ui, -apple-system, 'Segoe UI', sans-serif" font-size="12" font-weight="600" fill="#0b0b0b" text-anchor="middle">35.0</text>
<path d="M 200.00 330.00 L 200.00 313.18 Q 200.00 309.18 204.00 309.18 L 240.00 309.18 Q 244.00 309.18 244.00 313.18 L 244.00 330.00 Z" fill="#1baf7a"/>
<line x1="222.00" y1="316.31" x2="222.00" y2="302.04" stroke="#52514e" stroke-width="1.5"/>
<line x1="217.00" y1="316.31" x2="227.00" y2="316.31" stroke="#52514e" stroke-width="1.5"/>
<line x1="217.00" y1="302.04" x2="227.00" y2="302.04" stroke="#52514e" stroke-width="1.5"/>
<text x="222.00" y="294.04" font-family="system-ui, -apple-system, 'Segoe UI', sans-serif" font-size="12" font-weight="600" fill="#0b0b0b" text-anchor="middle">35.0</text>
<text x="176.00" y="354" font-family="system-ui, -apple-system, 'Segoe UI', sans-serif" font-size="12.5" fill="#52514e" text-anchor="middle">tcp-freedom</text>
<path d="M 332.00 330.00 L 332.00 312.58 Q 332.00 308.58 336.00 308.58 L 372.00 308.58 Q 376.00 308.58 376.00 312.58 L 376.00 330.00 Z" fill="#2a78d6"/>
<line x1="354.00" y1="308.58" x2="354.00" y2="299.65" stroke="#52514e" stroke-width="1.5"/>
<line x1="349.00" y1="308.58" x2="359.00" y2="308.58" stroke="#52514e" stroke-width="1.5"/>
<line x1="349.00" y1="299.65" x2="359.00" y2="299.65" stroke="#52514e" stroke-width="1.5"/>
<text x="354.00" y="291.65" font-family="system-ui, -apple-system, 'Segoe UI', sans-serif" font-size="12" font-weight="600" fill="#0b0b0b" text-anchor="middle">36.0</text>
<path d="M 378.00 330.00 L 378.00 298.30 Q 378.00 294.30 382.00 294.30 L 418.00 294.30 Q 422.00 294.30 422.00 298.30 L 422.00 330.00 Z" fill="#eb6834"/>
<line x1="400.00" y1="294.30" x2="400.00" y2="288.35" stroke="#52514e" stroke-width="1.5"/>
<line x1="395.00" y1="294.30" x2="405.00" y2="294.30" stroke="#52514e" stroke-width="1.5"/>
<line x1="395.00" y1="288.35" x2="405.00" y2="288.35" stroke="#52514e" stroke-width="1.5"/>
<text x="400.00" y="280.35" font-family="system-ui, -apple-system, 'Segoe UI', sans-serif" font-size="12" font-weight="600" fill="#0b0b0b" text-anchor="middle">60.0</text>
<path d="M 424.00 330.00 L 424.00 307.23 Q 424.00 303.23 428.00 303.23 L 464.00 303.23 Q 468.00 303.23 468.00 307.23 L 468.00 330.00 Z" fill="#1baf7a"/>
<line x1="446.00" y1="306.20" x2="446.00" y2="297.27" stroke="#52514e" stroke-width="1.5"/>
<line x1="441.00" y1="306.20" x2="451.00" y2="306.20" stroke="#52514e" stroke-width="1.5"/>
<line x1="441.00" y1="297.27" x2="451.00" y2="297.27" stroke="#52514e" stroke-width="1.5"/>
<text x="446.00" y="289.27" font-family="system-ui, -apple-system, 'Segoe UI', sans-serif" font-size="12" font-weight="600" fill="#0b0b0b" text-anchor="middle">45.0</text>
<text x="400.00" y="354" font-family="system-ui, -apple-system, 'Segoe UI', sans-serif" font-size="12.5" fill="#52514e" text-anchor="middle">udp-freedom</text>
<path d="M 556.00 330.00 L 556.00 281.05 Q 556.00 277.05 560.00 277.05 L 596.00 277.05 Q 600.00 277.05 600.00 281.05 L 600.00 330.00 Z" fill="#2a78d6"/>
<line x1="578.00" y1="277.64" x2="578.00" y2="186.01" stroke="#52514e" stroke-width="1.5"/>
<line x1="573.00" y1="277.64" x2="583.00" y2="277.64" stroke="#52514e" stroke-width="1.5"/>
<line x1="573.00" y1="186.01" x2="583.00" y2="186.01" stroke="#52514e" stroke-width="1.5"/>
<text x="578.00" y="178.01" font-family="system-ui, -apple-system, 'Segoe UI', sans-serif" font-size="12" font-weight="600" fill="#0b0b0b" text-anchor="middle">89.0</text>
<path d="M 602.00 330.00 L 602.00 274.50 Q 602.00 270.50 606.00 270.50 L 642.00 270.50 Q 646.00 270.50 646.00 274.50 L 646.00 330.00 Z" fill="#eb6834"/>
<line x1="624.00" y1="271.10" x2="624.00" y2="186.60" stroke="#52514e" stroke-width="1.5"/>
<line x1="619.00" y1="271.10" x2="629.00" y2="271.10" stroke="#52514e" stroke-width="1.5"/>
<line x1="619.00" y1="186.60" x2="629.00" y2="186.60" stroke="#52514e" stroke-width="1.5"/>
<text x="624.00" y="178.60" font-family="system-ui, -apple-system, 'Segoe UI', sans-serif" font-size="12" font-weight="600" fill="#0b0b0b" text-anchor="middle">100</text>
<path d="M 648.00 330.00 L 648.00 282.24 Q 648.00 278.24 652.00 278.24 L 688.00 278.24 Q 692.00 278.24 692.00 282.24 L 692.00 330.00 Z" fill="#1baf7a"/>
<line x1="670.00" y1="278.83" x2="670.00" y2="180.06" stroke="#52514e" stroke-width="1.5"/>
<line x1="665.00" y1="278.83" x2="675.00" y2="278.83" stroke="#52514e" stroke-width="1.5"/>
<line x1="665.00" y1="180.06" x2="675.00" y2="180.06" stroke="#52514e" stroke-width="1.5"/>
<text x="670.00" y="172.06" font-family="system-ui, -apple-system, 'Segoe UI', sans-serif" font-size="12" font-weight="600" fill="#0b0b0b" text-anchor="middle">87.0</text>
<text x="624.00" y="354" font-family="system-ui, -apple-system, 'Segoe UI', sans-serif" font-size="12.5" fill="#52514e" text-anchor="middle">reality-vision-xudp</text>
<text x="24" y="404" font-family="system-ui, -apple-system, 'Segoe UI', sans-serif" font-size="11" fill="#898781">2026-07-30 · Apple M3 Pro, 18 GB RAM, macOS 26.5.2 · runs=5 · synthetic localhost benchmark</text>
<text x="24" y="422" font-family="system-ui, -apple-system, 'Segoe UI', sans-serif" font-size="11" fill="#898781">xray-rust 65e2346 · Xray-core v26.5.9 · sing-box v1.13.15</text>
</svg>
