<svg xmlns="http://www.w3.org/2000/svg" width="760" height="440" viewBox="0 0 760 440" role="img" aria-label="Peak resident set size — MiB (lower is better)">
<rect width="760" height="440" fill="#fcfcfb" rx="8"/>
<text x="24" y="34" font-family="system-ui, -apple-system, 'Segoe UI', sans-serif" font-size="17" font-weight="600" fill="#0b0b0b">Peak resident set size — MiB (lower is better)</text>
<rect x="24.00" y="52" width="12" height="12" rx="3" fill="#2a78d6"/>
<text x="42.00" y="62" font-family="system-ui, -apple-system, 'Segoe UI', sans-serif" font-size="12.5" fill="#52514e">xray-rust</text>
<rect x="138.00" y="52" width="12" height="12" rx="3" fill="#eb6834"/>
<text x="156.00" y="62" font-family="system-ui, -apple-system, 'Segoe UI', sans-serif" font-size="12.5" fill="#52514e">Xray-core</text>
<rect x="252.00" y="52" width="12" height="12" rx="3" fill="#1baf7a"/>
<text x="270.00" y="62" font-family="system-ui, -apple-system, 'Segoe UI', sans-serif" font-size="12.5" fill="#52514e">sing-box</text>
<text x="54" y="334.00" font-family="system-ui, -apple-system, 'Segoe UI', sans-serif" font-size="11" fill="#898781" text-anchor="end">0.00</text>
<line x1="64" y1="270.50" x2="736" y2="270.50" stroke="#e1e0d9" stroke-width="1"/>
<text x="54" y="274.50" font-family="system-ui, -apple-system, 'Segoe UI', sans-serif" font-size="11" fill="#898781" text-anchor="end">25.0</text>
<line x1="64" y1="211.00" x2="736" y2="211.00" stroke="#e1e0d9" stroke-width="1"/>
<text x="54" y="215.00" font-family="system-ui, -apple-system, 'Segoe UI', sans-serif" font-size="11" fill="#898781" text-anchor="end">50.0</text>
<line x1="64" y1="151.50" x2="736" y2="151.50" stroke="#e1e0d9" stroke-width="1"/>
<text x="54" y="155.50" font-family="system-ui, -apple-system, 'Segoe UI', sans-serif" font-size="11" fill="#898781" text-anchor="end">75.0</text>
<line x1="64" y1="92.00" x2="736" y2="92.00" stroke="#e1e0d9" stroke-width="1"/>
<text x="54" y="96.00" font-family="system-ui, -apple-system, 'Segoe UI', sans-serif" font-size="11" fill="#898781" text-anchor="end">100</text>
<line x1="64" y1="330" x2="736" y2="330" stroke="#c3c2b7" stroke-width="1"/>
<path d="M 108.00 330.00 L 108.00 324.85 Q 108.00 320.85 112.00 320.85 L 148.00 320.85 Q 152.00 320.85 152.00 324.85 L 152.00 330.00 Z" fill="#2a78d6"/>
<line x1="130.00" y1="320.89" x2="130.00" y2="320.81" stroke="#52514e" stroke-width="1.5"/>
<line x1="125.00" y1="320.89" x2="135.00" y2="320.89" stroke="#52514e" stroke-width="1.5"/>
<line x1="125.00" y1="320.81" x2="135.00" y2="320.81" stroke="#52514e" stroke-width="1.5"/>
<text x="130.00" y="312.81" font-family="system-ui, -apple-system, 'Segoe UI', sans-serif" font-size="12" font-weight="600" fill="#0b0b0b" text-anchor="middle">3.84</text>
<path d="M 154.00 330.00 L 154.00 267.21 Q 154.00 263.21 158.00 263.21 L 194.00 263.21 Q 198.00 263.21 198.00 267.21 L 198.00 330.00 Z" fill="#eb6834"/>
<line x1="176.00" y1="263.77" x2="176.00" y2="261.28" stroke="#52514e" stroke-width="1.5"/>
<line x1="171.00" y1="263.77" x2="181.00" y2="263.77" stroke="#52514e" stroke-width="1.5"/>
<line x1="171.00" y1="261.28" x2="181.00" y2="261.28" stroke="#52514e" stroke-width="1.5"/>
<text x="176.00" y="253.28" font-family="system-ui, -apple-system, 'Segoe UI', sans-serif" font-size="12" font-weight="600" fill="#0b0b0b" text-anchor="middle">28.1</text>
<path d="M 200.00 330.00 L 200.00 284.28 Q 200.00 280.28 204.00 280.28 L 240.00 280.28 Q 244.00 280.28 244.00 284.28 L 244.00 330.00 Z" fill="#1baf7a"/>
<line x1="222.00" y1="280.47" x2="222.00" y2="278.90" stroke="#52514e" stroke-width="1.5"/>
<line x1="217.00" y1="280.47" x2="227.00" y2="280.47" stroke="#52514e" stroke-width="1.5"/>
<line x1="217.00" y1="278.90" x2="227.00" y2="278.90" stroke="#52514e" stroke-width="1.5"/>
<text x="222.00" y="270.90" font-family="system-ui, -apple-system, 'Segoe UI', sans-serif" font-size="12" font-weight="600" fill="#0b0b0b" text-anchor="middle">20.9</text>
<text x="176.00" y="354" font-family="system-ui, -apple-system, 'Segoe UI', sans-serif" font-size="12.5" fill="#52514e" text-anchor="middle">idle</text>
<path d="M 332.00 330.00 L 332.00 320.91 Q 332.00 316.91 336.00 316.91 L 372.00 316.91 Q 376.00 316.91 376.00 320.91 L 376.00 330.00 Z" fill="#2a78d6"/>
<line x1="354.00" y1="316.95" x2="354.00" y2="316.76" stroke="#52514e" stroke-width="1.5"/>
<line x1="349.00" y1="316.95" x2="359.00" y2="316.95" stroke="#52514e" stroke-width="1.5"/>
<line x1="349.00" y1="316.76" x2="359.00" y2="316.76" stroke="#52514e" stroke-width="1.5"/>
<text x="354.00" y="308.76" font-family="system-ui, -apple-system, 'Segoe UI', sans-serif" font-size="12" font-weight="600" fill="#0b0b0b" text-anchor="middle">5.50</text>
<path d="M 378.00 330.00 L 378.00 250.33 Q 378.00 246.33 382.00 246.33 L 418.00 246.33 Q 422.00 246.33 422.00 250.33 L 422.00 330.00 Z" fill="#eb6834"/>
<line x1="400.00" y1="246.92" x2="400.00" y2="245.88" stroke="#52514e" stroke-width="1.5"/>
<line x1="395.00" y1="246.92" x2="405.00" y2="246.92" stroke="#52514e" stroke-width="1.5"/>
<line x1="395.00" y1="245.88" x2="405.00" y2="245.88" stroke="#52514e" stroke-width="1.5"/>
<text x="400.00" y="237.88" font-family="system-ui, -apple-system, 'Segoe UI', sans-serif" font-size="12" font-weight="600" fill="#0b0b0b" text-anchor="middle">35.2</text>
<path d="M 424.00 330.00 L 424.00 271.19 Q 424.00 267.19 428.00 267.19 L 464.00 267.19 Q 468.00 267.19 468.00 271.19 L 468.00 330.00 Z" fill="#1baf7a"/>
<line x1="446.00" y1="268.19" x2="446.00" y2="264.48" stroke="#52514e" stroke-width="1.5"/>
<line x1="441.00" y1="268.19" x2="451.00" y2="268.19" stroke="#52514e" stroke-width="1.5"/>
<line x1="441.00" y1="264.48" x2="451.00" y2="264.48" stroke="#52514e" stroke-width="1.5"/>
<text x="446.00" y="256.48" font-family="system-ui, -apple-system, 'Segoe UI', sans-serif" font-size="12" font-weight="600" fill="#0b0b0b" text-anchor="middle">26.4</text>
<text x="400.00" y="354" font-family="system-ui, -apple-system, 'Segoe UI', sans-serif" font-size="12.5" fill="#52514e" text-anchor="middle">many-idle-flows ×100</text>
<path d="M 556.00 330.00 L 556.00 290.53 Q 556.00 286.53 560.00 286.53 L 596.00 286.53 Q 600.00 286.53 600.00 290.53 L 600.00 330.00 Z" fill="#2a78d6"/>
<line x1="578.00" y1="286.53" x2="578.00" y2="286.49" stroke="#52514e" stroke-width="1.5"/>
<line x1="573.00" y1="286.53" x2="583.00" y2="286.53" stroke="#52514e" stroke-width="1.5"/>
<line x1="573.00" y1="286.49" x2="583.00" y2="286.49" stroke="#52514e" stroke-width="1.5"/>
<text x="578.00" y="278.49" font-family="system-ui, -apple-system, 'Segoe UI', sans-serif" font-size="12" font-weight="600" fill="#0b0b0b" text-anchor="middle">18.3</text>
<path d="M 602.00 330.00 L 602.00 143.79 Q 602.00 139.79 606.00 139.79 L 642.00 139.79 Q 646.00 139.79 646.00 143.79 L 646.00 330.00 Z" fill="#eb6834"/>
<line x1="624.00" y1="142.72" x2="624.00" y2="138.08" stroke="#52514e" stroke-width="1.5"/>
<line x1="619.00" y1="142.72" x2="629.00" y2="142.72" stroke="#52514e" stroke-width="1.5"/>
<line x1="619.00" y1="138.08" x2="629.00" y2="138.08" stroke="#52514e" stroke-width="1.5"/>
<text x="624.00" y="130.08" font-family="system-ui, -apple-system, 'Segoe UI', sans-serif" font-size="12" font-weight="600" fill="#0b0b0b" text-anchor="middle">79.9</text>
<path d="M 648.00 330.00 L 648.00 224.22 Q 648.00 220.22 652.00 220.22 L 688.00 220.22 Q 692.00 220.22 692.00 224.22 L 692.00 330.00 Z" fill="#1baf7a"/>
<line x1="670.00" y1="220.74" x2="670.00" y2="213.57" stroke="#52514e" stroke-width="1.5"/>
<line x1="665.00" y1="220.74" x2="675.00" y2="220.74" stroke="#52514e" stroke-width="1.5"/>
<line x1="665.00" y1="213.57" x2="675.00" y2="213.57" stroke="#52514e" stroke-width="1.5"/>
<text x="670.00" y="205.57" font-family="system-ui, -apple-system, 'Segoe UI', sans-serif" font-size="12" font-weight="600" fill="#0b0b0b" text-anchor="middle">46.1</text>
<text x="624.00" y="354" font-family="system-ui, -apple-system, 'Segoe UI', sans-serif" font-size="12.5" fill="#52514e" text-anchor="middle">many-idle-flows ×1000</text>
<text x="24" y="404" font-family="system-ui, -apple-system, 'Segoe UI', sans-serif" font-size="11" fill="#898781">2026-08-01 · Apple M3 Pro, 18 GB RAM, macOS 26.5.2 · runs=5 · synthetic localhost benchmark</text>
<text x="24" y="422" font-family="system-ui, -apple-system, 'Segoe UI', sans-serif" font-size="11" fill="#898781">xray-rust af33ae8 · Xray-core v26.5.9 · sing-box v1.13.15</text>
</svg>
