<svg xmlns="http://www.w3.org/2000/svg" width="760" height="440" viewBox="0 0 760 440" role="img" aria-label="Bulk TCP throughput through VLESS + REALITY + Vision — Gbps (higher is better)">
<rect width="760" height="440" fill="#fcfcfb" rx="8"/>
<text x="24" y="34" font-family="system-ui, -apple-system, 'Segoe UI', sans-serif" font-size="17" font-weight="600" fill="#0b0b0b">Bulk TCP throughput through VLESS + REALITY + Vision — Gbps (higher is better)</text>
<rect x="24.00" y="52" width="12" height="12" rx="3" fill="#2a78d6"/>
<text x="42.00" y="62" font-family="system-ui, -apple-system, 'Segoe UI', sans-serif" font-size="12.5" fill="#52514e">xray-rust</text>
<rect x="138.00" y="52" width="12" height="12" rx="3" fill="#eb6834"/>
<text x="156.00" y="62" font-family="system-ui, -apple-system, 'Segoe UI', sans-serif" font-size="12.5" fill="#52514e">Xray-core</text>
<rect x="252.00" y="52" width="12" height="12" rx="3" fill="#1baf7a"/>
<text x="270.00" y="62" font-family="system-ui, -apple-system, 'Segoe UI', sans-serif" font-size="12.5" fill="#52514e">sing-box</text>
<text x="54" y="334.00" font-family="system-ui, -apple-system, 'Segoe UI', sans-serif" font-size="11" fill="#898781" text-anchor="end">0.00</text>
<line x1="64" y1="270.50" x2="736" y2="270.50" stroke="#e1e0d9" stroke-width="1"/>
<text x="54" y="274.50" font-family="system-ui, -apple-system, 'Segoe UI', sans-serif" font-size="11" fill="#898781" text-anchor="end">5.00</text>
<line x1="64" y1="211.00" x2="736" y2="211.00" stroke="#e1e0d9" stroke-width="1"/>
<text x="54" y="215.00" font-family="system-ui, -apple-system, 'Segoe UI', sans-serif" font-size="11" fill="#898781" text-anchor="end">10.0</text>
<line x1="64" y1="151.50" x2="736" y2="151.50" stroke="#e1e0d9" stroke-width="1"/>
<text x="54" y="155.50" font-family="system-ui, -apple-system, 'Segoe UI', sans-serif" font-size="11" fill="#898781" text-anchor="end">15.0</text>
<line x1="64" y1="92.00" x2="736" y2="92.00" stroke="#e1e0d9" stroke-width="1"/>
<text x="54" y="96.00" font-family="system-ui, -apple-system, 'Segoe UI', sans-serif" font-size="11" fill="#898781" text-anchor="end">20.0</text>
<line x1="64" y1="330" x2="736" y2="330" stroke="#c3c2b7" stroke-width="1"/>
<path d="M 332.00 330.00 L 332.00 163.63 Q 332.00 159.63 336.00 159.63 L 372.00 159.63 Q 376.00 159.63 376.00 163.63 L 376.00 330.00 Z" fill="#2a78d6"/>
<line x1="354.00" y1="161.03" x2="354.00" y2="156.15" stroke="#52514e" stroke-width="1.5"/>
<line x1="349.00" y1="161.03" x2="359.00" y2="161.03" stroke="#52514e" stroke-width="1.5"/>
<line x1="349.00" y1="156.15" x2="359.00" y2="156.15" stroke="#52514e" stroke-width="1.5"/>
<text x="354.00" y="148.15" font-family="system-ui, -apple-system, 'Segoe UI', sans-serif" font-size="12" font-weight="600" fill="#0b0b0b" text-anchor="middle">14.3</text>
<path d="M 378.00 330.00 L 378.00 171.48 Q 378.00 167.48 382.00 167.48 L 418.00 167.48 Q 422.00 167.48 422.00 171.48 L 422.00 330.00 Z" fill="#eb6834"/>
<line x1="400.00" y1="173.22" x2="400.00" y2="164.85" stroke="#52514e" stroke-width="1.5"/>
<line x1="395.00" y1="173.22" x2="405.00" y2="173.22" stroke="#52514e" stroke-width="1.5"/>
<line x1="395.00" y1="164.85" x2="405.00" y2="164.85" stroke="#52514e" stroke-width="1.5"/>
<text x="400.00" y="156.85" font-family="system-ui, -apple-system, 'Segoe UI', sans-serif" font-size="12" font-weight="600" fill="#0b0b0b" text-anchor="middle">13.7</text>
<path d="M 424.00 330.00 L 424.00 167.78 Q 424.00 163.78 428.00 163.78 L 464.00 163.78 Q 468.00 163.78 468.00 167.78 L 468.00 330.00 Z" fill="#1baf7a"/>
<line x1="446.00" y1="172.73" x2="446.00" y2="162.42" stroke="#52514e" stroke-width="1.5"/>
<line x1="441.00" y1="172.73" x2="451.00" y2="172.73" stroke="#52514e" stroke-width="1.5"/>
<line x1="441.00" y1="162.42" x2="451.00" y2="162.42" stroke="#52514e" stroke-width="1.5"/>
<text x="446.00" y="154.42" font-family="system-ui, -apple-system, 'Segoe UI', sans-serif" font-size="12" font-weight="600" fill="#0b0b0b" text-anchor="middle">14.0</text>
<text x="400.00" y="354" font-family="system-ui, -apple-system, 'Segoe UI', sans-serif" font-size="12.5" fill="#52514e" text-anchor="middle">reality-vision-bulk-throughput</text>
<text x="24" y="404" font-family="system-ui, -apple-system, 'Segoe UI', sans-serif" font-size="11" fill="#898781">2026-08-01 · Apple M3 Pro, 18 GB RAM, macOS 26.5.2 · runs=5 · synthetic localhost benchmark</text>
<text x="24" y="422" font-family="system-ui, -apple-system, 'Segoe UI', sans-serif" font-size="11" fill="#898781">xray-rust af33ae8 · Xray-core v26.5.9 · sing-box v1.13.15</text>
</svg>
